<?xml version="1.0" encoding="UTF-8"?>
<svg version="1.1" xmlns="http://www.w3.org/2000/svg" width="64" height="64">
<path d="M0 0 C2.67193902 2.67193902 2.25316128 3.97026755 2.25878906 7.703125 C2.26509338 8.89776367 2.27139771 10.09240234 2.27789307 11.32324219 C2.2738446 12.61907227 2.26979614 13.91490234 2.265625 15.25 C2.26697178 16.58756582 2.26891243 17.92513117 2.27142334 19.26269531 C2.274374 22.06710466 2.27007894 24.87138669 2.26074219 27.67578125 C2.24934754 31.27404922 2.25590734 34.87201886 2.26788712 38.47027588 C2.27510736 41.23260758 2.27281706 43.99486833 2.26763153 46.75720215 C2.26564475 48.73038933 2.27172842 50.70357926 2.27789307 52.67675781 C2.27158875 53.87139648 2.26528442 55.06603516 2.25878906 56.296875 C2.25640228 57.88000488 2.25640228 57.88000488 2.25396729 59.49511719 C2 62 2 62 0 64 C-5.78812499 64.82550373 -11.45115901 64.76002327 -16.375 61.38671875 C-24.15166296 54.75038377 -27.27155684 47.9309673 -29 38 C-29.57237237 30.73527378 -28.87740596 24.69362658 -26 18 C-25.67515625 17.24074219 -25.3503125 16.48148438 -25.015625 15.69921875 C-23.14714152 11.65323336 -23.14714152 11.65323336 -22 10 C-21.01 9.67 -20.02 9.34 -19 9 C-17.79117904 6.99983534 -17.79117904 6.99983534 -17 5 C-16.01 5 -15.02 5 -14 5 C-13.79375 4.360625 -13.5875 3.72125 -13.375 3.0625 C-12 1 -12 1 -9.25 0.25 C-6.12037765 0.00925982 -3.13345742 -0.21364482 0 0 Z " fill="#E0AB4B" transform="translate(29,0)"/>
<path d="M0 0 C0 1.98 0 3.96 0 6 C-0.62648438 6.02578125 -1.25296875 6.0515625 -1.8984375 6.078125 C-2.71570313 6.13484375 -3.53296875 6.1915625 -4.375 6.25 C-5.18710937 6.29640625 -5.99921875 6.3428125 -6.8359375 6.390625 C-9.18838927 6.7922092 -9.18838927 6.7922092 -10.2890625 9.046875 C-10.52367188 9.69140625 -10.75828125 10.3359375 -11 11 C-10.34 11 -9.68 11 -9 11 C-8.67 10.01 -8.34 9.02 -8 8 C-5.36 8 -2.72 8 0 8 C0 14.6 0 21.2 0 28 C-6.6 28 -13.2 28 -20 28 C-20.33 26.68 -20.66 25.36 -21 24 C-21.66 24 -22.32 24 -23 24 C-23.33 26.64 -23.66 29.28 -24 32 C-25.485 32.495 -25.485 32.495 -27 33 C-27.16682272 28.07872966 -27.24828052 24.49656104 -25 20 C-23.02 20.33 -21.04 20.66 -19 21 C-19 20.34 -19 19.68 -19 19 C-20.65 18.67 -22.3 18.34 -24 18 C-23.01 15.03 -22.02 12.06 -21 9 C-17 10 -17 10 -14 12 C-14 11.34 -14 10.68 -14 10 C-14.99 9.67 -15.98 9.34 -17 9 C-16.67 7.35 -16.34 5.7 -16 4 C-14.68 4 -13.36 4 -12 4 C-11.773125 3.360625 -11.54625 2.72125 -11.3125 2.0625 C-10 -0 -10 -0 -7.6875 -0.8125 C-4.90291857 -1.00677312 -2.69377709 -0.69268554 0 0 Z " fill="#E6AE4B" transform="translate(29,3)"/>
<path d="M0 0 C2.67193902 2.67193902 2.25316128 3.97026755 2.25878906 7.703125 C2.26509338 8.89776367 2.27139771 10.09240234 2.27789307 11.32324219 C2.2738446 12.61907227 2.26979614 13.91490234 2.265625 15.25 C2.26697178 16.58756582 2.26891243 17.92513117 2.27142334 19.26269531 C2.274374 22.06710466 2.27007894 24.87138669 2.26074219 27.67578125 C2.24934754 31.27404922 2.25590734 34.87201886 2.26788712 38.47027588 C2.27510736 41.23260758 2.27281706 43.99486833 2.26763153 46.75720215 C2.26564475 48.73038933 2.27172842 50.70357926 2.27789307 52.67675781 C2.27158875 53.87139648 2.26528442 55.06603516 2.25878906 56.296875 C2.25640228 57.88000488 2.25640228 57.88000488 2.25396729 59.49511719 C2 62 2 62 0 64 C-5.78812499 64.82550373 -11.45115901 64.76002327 -16.375 61.38671875 C-24.15166296 54.75038377 -27.27155684 47.9309673 -29 38 C-29.57237237 30.73527378 -28.87740596 24.69362658 -26 18 C-25.67515625 17.24074219 -25.3503125 16.48148438 -25.015625 15.69921875 C-23.14714152 11.65323336 -23.14714152 11.65323336 -22 10 C-21.01 9.67 -20.02 9.34 -19 9 C-17.79117904 6.99983534 -17.79117904 6.99983534 -17 5 C-16.01 5 -15.02 5 -14 5 C-13.79375 4.360625 -13.5875 3.72125 -13.375 3.0625 C-12 1 -12 1 -9.25 0.25 C-6.12037765 0.00925982 -3.13345742 -0.21364482 0 0 Z M-11 4 C-11.33 4.99 -11.66 5.98 -12 7 C-13.65 7.33 -15.3 7.66 -17 8 C-16.67 9.65 -16.34 11.3 -16 13 C-15.34 13 -14.68 13 -14 13 C-14 13.66 -14 14.32 -14 15 C-14.598125 14.505 -15.19625 14.01 -15.8125 13.5 C-17.97029994 11.71723582 -17.97029994 11.71723582 -21 12 C-21.99 14.97 -22.98 17.94 -24 21 C-22.35 21.33 -20.7 21.66 -19 22 C-19 22.66 -19 23.32 -19 24 C-20.98 23.67 -22.96 23.34 -25 23 C-27.24828052 27.49656104 -27.16682272 31.07872966 -27 36 C-25.35 36 -23.7 36 -22 36 C-23.32 36.66 -24.64 37.32 -26 38 C-25.53328373 43.41390868 -24.75702189 47.20517932 -22 52 C-21.34 52 -20.68 52 -20 52 C-19.67 52.99 -19.34 53.98 -19 55 C-18.34 55 -17.68 55 -17 55 C-16.95875 55.598125 -16.9175 56.19625 -16.875 56.8125 C-16.13279467 59.2470488 -16.13279467 59.2470488 -13.5 60.75 C-9.24039528 62.2712874 -5.48478915 62.49096639 -1 62 C0.26181095 60.96207228 0.26181095 60.96207228 0.11352539 58.68334961 C0.10567017 57.18300171 0.10567017 57.18300171 0.09765625 55.65234375 C0.09282227 54.03295898 0.09282227 54.03295898 0.08789062 52.38085938 C0.07951172 51.24455078 0.07113281 50.10824219 0.0625 48.9375 C0.05798828 47.79732422 0.05347656 46.65714844 0.04882812 45.48242188 C0.03699747 42.65489649 0.0205141 39.8274736 0 37 C-2.64 37 -5.28 37 -8 37 C-8.33 37.99 -8.66 38.98 -9 40 C-9.66 40 -10.32 40 -11 40 C-10.2890625 38.046875 -10.2890625 38.046875 -9 36 C-6.8359375 35.390625 -6.8359375 35.390625 -4.375 35.25 C-3.14910156 35.16492187 -3.14910156 35.16492187 -1.8984375 35.078125 C-1.27195312 35.05234375 -0.64546875 35.0265625 0 35 C0 34.34 0 33.68 0 33 C-0.59014893 32.99589111 -1.18029785 32.99178223 -1.78833008 32.98754883 C-4.46407016 32.95463852 -7.13752475 32.88400379 -9.8125 32.8125 C-10.74126953 32.80669922 -11.67003906 32.80089844 -12.62695312 32.79492188 C-15.18224836 32.71189784 -17.51209558 32.59350285 -20 32 C-22.13671875 29.44921875 -22.13671875 29.44921875 -23 27 C-22.34 27 -21.68 27 -21 27 C-20.67 28.32 -20.34 29.64 -20 31 C-13.4 31 -6.8 31 0 31 C0 24.4 0 17.8 0 11 C-2.64 11 -5.28 11 -8 11 C-8.33 11.99 -8.66 12.98 -9 14 C-9.66 14 -10.32 14 -11 14 C-10.2890625 12.046875 -10.2890625 12.046875 -9 10 C-6.8359375 9.390625 -6.8359375 9.390625 -4.375 9.25 C-3.55773437 9.19328125 -2.74046875 9.1365625 -1.8984375 9.078125 C-1.27195312 9.05234375 -0.64546875 9.0265625 0 9 C0 7.02 0 5.04 0 3 C-4.26550147 1.74544074 -6.95637513 2.1619887 -11 4 Z " fill="#050C35" transform="translate(29,0)"/>
<path d="M0 0 C1.98 0 3.96 0 6 0 C6 1.98 6 3.96 6 6 C5.2575 6.2475 4.515 6.495 3.75 6.75 C0.90137414 7.79287973 0.90137414 7.79287973 -0.6875 10.125 C-4.3739302 13.11399746 -8.43040477 12.31394166 -13 12 C-13 12.66 -13 13.32 -13 14 C-12.34 14 -11.68 14 -11 14 C-11 15.98 -11 17.96 -11 20 C-12.98 20 -14.96 20 -17 20 C-17 18.02 -17 16.04 -17 14 C-16.34 14 -15.68 14 -15 14 C-15 12.68 -15 11.36 -15 10 C-14.40832031 9.98582031 -13.81664062 9.97164062 -13.20703125 9.95703125 C-8.83095217 9.69289597 -6.55967055 9.43141271 -3 6.6875 C-1.21826193 4.29328947 -0.32462444 2.92161999 0 0 Z " fill="#00103D" transform="translate(50,32)"/>
<path d="M0 0 C1.98 0.495 1.98 0.495 4 1 C3.34 1 2.68 1 2 1 C5.1836411 9.57892668 8.03452094 16.95991078 16.0625 21.875 C18.72951321 22.89640932 21.17932932 23.58519549 24 24 C24 24.33 24 24.66 24 25 C17.34454208 25.54330269 13.54165256 24.77304004 8 21 C8 20.01 8 19.02 8 18 C7.01 17.67 6.02 17.34 5 17 C5 16.34 5 15.68 5 15 C4.01 14.67 3.02 14.34 2 14 C-0.01018861 10.13916156 -1.12945267 6.26863621 -0.6875 1.9375 C-0.460625 1.298125 -0.23375 0.65875 0 0 Z " fill="#E7A52E" transform="translate(4,37)"/>
<path d="M0 0 C1.98 0 3.96 0 6 0 C6 0.66 6 1.32 6 2 C7.051875 1.896875 8.10375 1.79375 9.1875 1.6875 C13.94983425 2.07785527 14.88458906 3.54778788 18 7 C20.17346568 7.86119134 20.17346568 7.86119134 22 8 C22 9.98 22 11.96 22 14 C20.02 14 18.04 14 16 14 C15.7525 13.2575 15.505 12.515 15.25 11.75 C13.87718762 8.72981276 12.55179908 7.10148159 10 5 C7.8618034 4.2127322 7.8618034 4.2127322 6 4 C6 4.66 6 5.32 6 6 C4.02 6 2.04 6 0 6 C0 4.02 0 2.04 0 0 Z " fill="#00113E" transform="translate(33,16)"/>
<path d="M0 0 C1.98 0 3.96 0 6 0 C6 0.66 6 1.32 6 2 C7.65 2 9.3 2 11 2 C11.66 3.98 12.32 5.96 13 8 C13.99 8 14.98 8 16 8 C16 9.98 16 11.96 16 14 C14.02 14 12.04 14 10 14 C9.34 10.7 8.68 7.4 8 4 C7.34 4 6.68 4 6 4 C6 4.66 6 5.32 6 6 C4.02 6 2.04 6 0 6 C0 4.02 0 2.04 0 0 Z " fill="#001141" transform="translate(48,14)"/>
<path d="M0 0 C1.98 0 3.96 0 6 0 C6 1.98 6 3.96 6 6 C4.02 6 2.04 6 0 6 C0 5.34 0 4.68 0 4 C-0.6496875 4.99 -0.6496875 4.99 -1.3125 6 C-5.51781411 9.12953609 -9.92749266 8.31484528 -15 8 C-15 7.34 -15 6.68 -15 6 C-11.97265625 5.75585938 -11.97265625 5.75585938 -8.9453125 5.51171875 C-6.60480784 5.12606964 -6.60480784 5.12606964 -5 2 C-2.375 1.8125 -2.375 1.8125 0 2 C0 1.34 0 0.68 0 0 Z " fill="#000E3B" transform="translate(48,6)"/>
<path d="M0 0 C0.99 0 1.98 0 3 0 C2.38722388 2.96175123 1.74627478 4.38058783 0 7 C-1.9453125 7.29296875 -1.9453125 7.29296875 -4.125 7.1875 C-5.40375 7.125625 -6.6825 7.06375 -8 7 C-8 7.66 -8 8.32 -8 9 C-9.98 9 -11.96 9 -14 9 C-14 7.02 -14 5.04 -14 3 C-12.02 3 -10.04 3 -8 3 C-8 3.66 -8 4.32 -8 5 C-3.17557816 3.73053486 -3.17557816 3.73053486 0 0 Z " fill="#000E3A" transform="translate(47,55)"/>
<path d="M0 0 C1.98 0 3.96 0 6 0 C6 1.98 6 3.96 6 6 C4.02 6 2.04 6 0 6 C0 5.34 0 4.68 0 4 C-0.99 4 -1.98 4 -3 4 C-3 5.98 -3 7.96 -3 10 C-5.97 10 -8.94 10 -12 10 C-12 9.34 -12 8.68 -12 8 C-9.69 8 -7.38 8 -5 8 C-5 6.02 -5 4.04 -5 2 C-3.35 2 -1.7 2 0 2 C0 1.34 0 0.68 0 0 Z " fill="#000F3C" transform="translate(46,46)"/>
<path d="M0 0 C-0.55700072 3.23060419 -1.29215122 5.0658223 -4 7 C-6.6875 7.1875 -6.6875 7.1875 -9 7 C-9 7.66 -9 8.32 -9 9 C-10.98 9 -12.96 9 -15 9 C-15 7.02 -15 5.04 -15 3 C-13.02 3 -11.04 3 -9 3 C-9 3.66 -9 4.32 -9 5 C-8.071875 4.175 -7.14375 3.35 -6.1875 2.5 C-3.375 0 -3.375 0 0 0 Z " fill="#000F3C" transform="translate(48,31)"/>
<path d="M0 0 C2.86724686 0.57344937 3.8614515 0.8614515 6 3 C6.125 5.625 6.125 5.625 6 8 C6.66 8 7.32 8 8 8 C8 9.98 8 11.96 8 14 C6.02 14 4.04 14 2 14 C2 12.02 2 10.04 2 8 C2.66 8 3.32 8 4 8 C3.01 6.8553125 3.01 6.8553125 2 5.6875 C0 3 0 3 0 0 Z " fill="#00103D" transform="translate(52,42)"/>
<path d="M0 0 C1.98 0 3.96 0 6 0 C6 1.98 6 3.96 6 6 C5.34 6 4.68 6 4 6 C4 7.32 4 8.64 4 10 C1.69 10 -0.62 10 -3 10 C-3 9.34 -3 8.68 -3 8 C-1.35 8 0.3 8 2 8 C2 7.34 2 6.68 2 6 C1.34 6 0.68 6 0 6 C0 4.02 0 2.04 0 0 Z " fill="#00113F" transform="translate(36,0)"/>
<path d="M0 0 C0.66 0 1.32 0 2 0 C2 1.98 2 3.96 2 6 C2.66 6 3.32 6 4 6 C4 7.98 4 9.96 4 12 C2.02 12 0.04 12 -2 12 C-2 10.02 -2 8.04 -2 6 C-1.34 6 -0.68 6 0 6 C0 4.02 0 2.04 0 0 Z " fill="#001240" transform="translate(60,30)"/>
<path d="M0 0 C1.98 0 3.96 0 6 0 C6 1.98 6 3.96 6 6 C4.02 6 2.04 6 0 6 C0 5.34 0 4.68 0 4 C-1.98 4 -3.96 4 -6 4 C-6 3.34 -6 2.68 -6 2 C-4.02 2 -2.04 2 0 2 C0 1.34 0 0.68 0 0 Z " fill="#001240" transform="translate(39,24)"/>
<path d="M0 0 C1.32 0.33 2.64 0.66 4 1 C3.34 1 2.68 1 2 1 C2.04125 2.2375 2.0825 3.475 2.125 4.75 C2.13658291 8.01637962 1.8568702 10.2146947 0 13 C-0.66 13 -1.32 13 -2 13 C-2.16682272 8.07872966 -2.24828052 4.49656104 0 0 Z " fill="#DE9F30" transform="translate(4,23)"/>
<path d="M0 0 C6.6 0.6 6.6 0.6 9 3 C9 4.32 9 5.64 9 7 C8.34 7 7.68 7 7 7 C6.34 5.68 5.68 4.36 5 3 C3.02 3.33 1.04 3.66 -1 4 C-1 1 -1 1 0 0 Z " fill="#242338" transform="translate(14,17)"/>
<path d="M0 0 C0.94875 0.04125 1.8975 0.0825 2.875 0.125 C3.205 1.115 3.535 2.105 3.875 3.125 C1.895 3.125 -0.085 3.125 -2.125 3.125 C-2.785 4.445 -3.445 5.765 -4.125 7.125 C-4.785 7.125 -5.445 7.125 -6.125 7.125 C-5.03177966 0.20127119 -5.03177966 0.20127119 0 0 Z " fill="#1D1E38" transform="translate(21.125,42.875)"/>
</svg>
