<?xml version="1.0" encoding="UTF-8"?>
<svg version="1.1" xmlns="http://www.w3.org/2000/svg" width="512" height="512">
<path d="M0 0 C11.25278303 9.33875825 11.25278303 9.33875825 14.8203125 15.3984375 C15.27148438 16.13320313 15.72265625 16.86796875 16.1875 17.625 C16.8475 17.625 17.5075 17.625 18.1875 17.625 C19.46212592 16.13657685 19.46212592 16.13657685 20.75 14.1875 C31.93920763 -1.06317483 47.87707077 -10.46109499 66.42358398 -13.97802734 C88.70892892 -17.17880209 109.47302204 -12.92763619 128.13671875 -0.39453125 C130.61556068 1.50730613 132.9141253 3.48293936 135.1875 5.625 C135.88101562 6.27726562 136.57453125 6.92953125 137.2890625 7.6015625 C145.06377526 15.61642082 152.8273036 28.16038454 153.3125 39.5625 C153.27125 40.243125 153.23 40.92375 153.1875 41.625 C153.95191406 41.57859375 154.71632813 41.5321875 155.50390625 41.484375 C171.21378925 40.9550408 186.57322959 45.56407589 198.5 56 C200.0821992 57.52144275 201.64614125 59.06219625 203.1875 60.625 C203.83589844 61.26308594 204.48429687 61.90117188 205.15234375 62.55859375 C214.25362445 72.13784105 218.57997804 84.08825893 218.4375 97.125 C218.44523437 97.83269531 218.45296875 98.54039063 218.4609375 99.26953125 C218.44237843 104.34543696 217.5730165 108.74270376 216.1875 113.625 C217.92386719 114.25341797 217.92386719 114.25341797 219.6953125 114.89453125 C236.66338022 121.27341989 251.48446391 129.98548875 259.7578125 146.8203125 C265.53744835 160.26209416 266.28460739 174.95433935 261.4140625 188.84765625 C259.953624 192.15457272 258.22783388 195.06456037 256.04296875 197.94140625 C255.01935205 199.59955191 255.01935205 199.59955191 255.3203125 201.5625 C256.42847722 204.19813501 257.97999233 205.92204372 259.875 208.0625 C269.44037243 219.71922625 273.7858376 234.00619862 273.625 248.9375 C273.61670166 249.94151855 273.60840332 250.94553711 273.59985352 251.97998047 C273.19272895 269.97169889 265.99292927 285.00912479 253.1875 297.625 C252.011875 298.79869141 252.011875 298.79869141 250.8125 299.99609375 C243.60593433 306.84464093 235.51001204 312.10995448 226.1875 315.625 C226.89326172 317.05779297 226.89326172 317.05779297 227.61328125 318.51953125 C236.31146756 336.44701969 240.17078547 354.46103403 234.11328125 374.109375 C228.28140416 390.07804792 228.28140416 390.07804792 223.1875 392.625 C222.0325 392.439375 220.8775 392.25375 219.6875 392.0625 C216.27922165 391.96903716 215.24755638 392.57612103 212.54296875 394.77734375 C210.79009559 396.56614696 209.06969882 398.38747477 207.38671875 400.2421875 C205.1875 402.625 205.1875 402.625 202.1875 404.625 C201.68711395 406.65514654 201.68711395 406.65514654 201.5 408.9375 C200.76373064 412.53256524 200.0720871 414.30266539 197 416.375 C189.73084271 420.23046464 181.19205632 422.7653556 173.1875 424.625 C173.05794922 426.23955078 173.05794922 426.23955078 172.92578125 427.88671875 C171.16326742 447.15908699 163.77944209 465.15286224 148.65966797 477.91455078 C126.81854518 495.41750261 102.2102018 500.31651751 74.57275391 497.34375 C54.48131414 494.38529495 36.45405537 482.60336897 23.1875 467.625 C21.36882524 465.01987129 19.79284045 462.36961432 18.1875 459.625 C17.5275 459.625 16.8675 459.625 16.1875 459.625 C15.14925352 461.02042748 14.18349357 462.46992943 13.25 463.9375 C3.30046878 478.44124963 -10.28416942 487.90522058 -26.8125 493.625 C-27.92109375 494.01816406 -29.0296875 494.41132813 -30.171875 494.81640625 C-53.373658 501.84057473 -78.62195192 498.67582156 -99.984375 487.77734375 C-105.11987347 484.99877144 -109.47561684 481.51118746 -113.8125 477.625 C-115.3284375 476.51125 -115.3284375 476.51125 -116.875 475.375 C-130.18232604 464.06565775 -136.89555364 446.33009527 -138.5 429.375 C-138.61400484 427.79234462 -138.7220647 426.20917695 -138.8125 424.625 C-139.73289062 424.41746094 -140.65328125 424.20992188 -141.6015625 423.99609375 C-160.40572362 419.41952093 -178.44087249 409.76837311 -189.8125 393.625 C-191.64026847 390.54288063 -191.81338855 389.65165662 -191.6875 385.875 C-191.22413963 384.15394719 -190.74328575 382.43376061 -190.13671875 380.7578125 C-189.68655049 377.79646468 -190.60769425 375.99614917 -191.75 373.25 C-193.3309262 369.19174615 -194.29001125 366.04197904 -193.8125 361.625 C-194.740625 361.563125 -195.66875 361.50125 -196.625 361.4375 C-199.8125 360.625 -199.8125 360.625 -201.515625 358.4765625 C-205.63162212 349.42632787 -201.0509266 336.46257539 -197.8125 327.625 C-195.96927233 323.53294445 -193.97342033 319.557875 -191.8125 315.625 C-192.70710938 315.2125 -193.60171875 314.8 -194.5234375 314.375 C-202.45736131 310.62499853 -209.26332884 306.55816001 -215.8125 300.625 C-217.07707031 299.51705078 -217.07707031 299.51705078 -218.3671875 298.38671875 C-229.28375661 288.24990458 -237.90162003 273.26801399 -238.98950195 258.16821289 C-239.45323596 238.71540259 -237.75161234 221.11451552 -223.8125 206.0625 C-222.9153125 205.19431641 -222.9153125 205.19431641 -222 204.30859375 C-220.61002797 202.71423273 -220.61002797 202.71423273 -220.94140625 200.76953125 C-222.47091544 197.00405795 -224.43082441 193.47414042 -226.33984375 189.890625 C-231.81346438 177.75283495 -231.5212181 162.92431892 -227.07421875 150.51953125 C-220.19303565 134.73328766 -208.62092982 124.26454052 -192.8125 117.625 C-189.50890793 116.49815832 -186.188881 115.50860609 -182.8125 114.625 C-182.67327777 110.8935128 -182.67327777 110.8935128 -183.29296875 108.375 C-185.99434382 94.07599213 -183.26915016 80.02379414 -175.37109375 67.83203125 C-170.82371031 61.39275395 -165.6772334 55.67435408 -158.8125 51.625 C-155.00066796 51.05322519 -152.94969517 51.05446841 -149.515625 52.77734375 C-145.84536187 53.92827886 -143.89751446 53.03155891 -140.3125 51.75 C-136.28971024 50.33074473 -133.09372069 49.35343003 -128.8125 49.625 C-128.709375 48.861875 -128.60625 48.09875 -128.5 47.3125 C-127.7443384 44.35855011 -127.35035617 43.28773336 -124.8125 41.625 C-121.625 41.4375 -121.625 41.4375 -118.8125 41.625 C-118.750625 40.3875 -118.68875 39.15 -118.625 37.875 C-116.8992278 22.99604512 -107.01516654 10.01650344 -95.609375 0.85546875 C-67.79972363 -19.73264412 -27.98843237 -20.87026704 0 0 Z " fill="#FE75B3" transform="translate(238.8125,14.375)"/>
<path d="M0 0 C10.51376427 8.00717146 20.16313698 17.86229408 22.421875 31.296875 C23.41146719 43.23687258 21.20742304 53.73127587 14.3984375 63.65234375 C13.02802847 65.96011255 12.97367544 67.68237759 13.421875 70.296875 C13.751875 71.286875 14.081875 72.276875 14.421875 73.296875 C16.2471875 73.668125 16.2471875 73.668125 18.109375 74.046875 C18.79386719 74.18609375 19.47835937 74.3253125 20.18359375 74.46875 C23.61697433 74.20510472 25.00207467 72.68594771 27.421875 70.296875 C32.09102869 62.86739999 35.43245261 55.06033043 36.421875 46.296875 C48.87398317 45.10970367 61.45955707 48.78562714 71.31640625 56.49609375 C72.01121094 57.09035156 72.70601562 57.68460937 73.421875 58.296875 C74.06511719 58.81894531 74.70835937 59.34101562 75.37109375 59.87890625 C81.99196431 65.78167805 86.89641715 74.88022628 87.625 83.77734375 C87.76862664 92.071782 86.12442344 98.2380362 82.171875 105.484375 C80.72287345 108.28206261 80.421875 109.32411181 80.421875 112.609375 C81.62733038 115.84903633 82.46023532 116.56762815 85.421875 118.296875 C88.74270413 118.91032948 88.74270413 118.91032948 92.421875 119.171875 C106.4862716 120.70012957 117.47980372 127.01263708 126.58984375 137.7578125 C132.69575242 146.22015927 134.76979043 154.98405036 133.421875 165.296875 C131.05792885 175.79557701 125.18248532 183.96545012 116.390625 190.0859375 C112.17315367 192.68001709 107.97716841 194.20842732 103.171875 195.234375 C99.48346244 195.99948991 99.48346244 195.99948991 97.359375 198.046875 C96.06432865 201.15498623 96.51801253 203.09859243 97.421875 206.296875 C99.91686254 208.79186254 100.83607882 208.64910901 104.296875 208.734375 C112.48706272 208.61567663 119.25708349 204.92161586 126.421875 201.296875 C135.03542134 209.72715439 141.69286559 221.7097122 142.72265625 233.83984375 C142.77699996 250.74073875 138.51562929 263.63895382 126.765625 276.015625 C117.27353482 285.25459277 106.46004136 290.65553388 93.8203125 294.4375 C91.27835253 295.15562811 91.27835253 295.15562811 89.421875 297.296875 C88.58402461 302.51720966 88.58402461 302.51720966 90.7421875 307.109375 C91.95973733 308.37606361 93.18143624 309.63877132 94.40625 310.8984375 C103.64763881 321.8949738 106.40294927 335.2915283 105.62597656 349.27050781 C104.94931472 355.98856201 102.68549592 362.48709506 99.171875 368.234375 C97.20376177 371.67857315 96.91356346 373.39981985 97.421875 377.296875 C98.06232906 378.97378907 98.72554042 380.64238403 99.421875 382.296875 C97.86583112 383.90730488 96.30174744 385.50996868 94.734375 387.109375 C93.86425781 388.00269531 92.99414062 388.89601563 92.09765625 389.81640625 C89.64825318 392.08702077 87.34601797 393.71098845 84.421875 395.296875 C84.091875 394.801875 83.761875 394.306875 83.421875 393.796875 C80.34983106 391.49284205 77.08983864 391.90343423 73.421875 392.296875 C69.77441156 393.48916002 69.77441156 393.48916002 66.234375 395.171875 C60.21595428 397.80973276 54.72985756 399.13168399 48.12890625 399.6796875 C44.62918096 400.47760467 43.42596537 401.30982602 41.421875 404.296875 C41.2056185 407.09339745 41.19039251 409.5259288 41.359375 412.296875 C41.76267172 427.07919044 37.48694516 439.99161511 27.35498047 451.07226562 C12.99002886 465.83585285 -6.05198867 472.33743553 -26.390625 472.671875 C-44.96129457 472.60205316 -62.91263587 465.28303968 -76.01953125 452.10546875 C-79.66752148 448.10103367 -82.71417171 443.88561808 -85.578125 439.296875 C-87.96933908 435.17246066 -87.96933908 435.17246066 -91.578125 432.296875 C-91.578125 400.946875 -91.578125 369.596875 -91.578125 337.296875 C-55.93526786 337.296875 -55.93526786 337.296875 -45.75 345.828125 C-40.75235311 351.17914086 -37.67986404 358.22672358 -36.765625 365.484375 C-37.85287286 370.5860765 -40.18105789 371.69994351 -44.30859375 374.60546875 C-47.62913799 377.08016007 -49.47430567 379.28365108 -50.578125 383.296875 C-51.50372613 390.90629065 -51.44500435 398.07179677 -46.578125 404.296875 C-42.57365224 408.44696495 -39.37769698 411.11603308 -33.43359375 411.5 C-32.22316406 411.51546875 -31.01273437 411.5309375 -29.765625 411.546875 C-28.56292969 411.57265625 -27.36023438 411.5984375 -26.12109375 411.625 C-19.71767253 411.03195989 -15.70020056 408.08739524 -11.578125 403.296875 C-7.72947581 396.76442202 -7.67287733 390.70806156 -8.578125 383.296875 C-10.5406708 378.03111425 -13.91610749 374.40488667 -18.578125 371.296875 C-19.26777344 371.05710937 -19.95742188 370.81734375 -20.66796875 370.5703125 C-22.578125 369.296875 -22.578125 369.296875 -23.265625 366.609375 C-23.36875 365.51625 -23.471875 364.423125 -23.578125 363.296875 C-25.16965451 350.83904056 -30.47766457 339.9040927 -40.328125 331.86328125 C-55.10333132 321.57706991 -73.36906984 322.87371484 -90.578125 322.296875 C-90.578125 306.786875 -90.578125 291.276875 -90.578125 275.296875 C-70.17149571 275.01733213 -50.16497354 274.76083377 -29.890625 277.046875 C-29.16202271 277.12546753 -28.43342041 277.20406006 -27.68273926 277.28503418 C-11.27881798 279.09610456 7.08208929 282.3955284 18.73828125 295.09375 C23.37092827 301.15596095 26.03190879 307.84160169 27.421875 315.296875 C27.628125 316.18375 27.834375 317.070625 28.046875 317.984375 C27.421875 320.296875 27.421875 320.296875 25.80859375 321.4296875 C24.38602887 322.23875453 22.96005183 323.04184273 21.53125 323.83984375 C17.23888743 326.80475345 15.037084 331.451248 13.421875 336.296875 C12.38221293 343.55965714 14.20291671 349.34188603 18.421875 355.296875 C24.35553202 360.99965043 29.41554037 362.636892 37.55859375 362.59375 C41.1576099 362.22059144 43.67936698 361.0938236 46.765625 359.26953125 C48.421875 358.296875 48.421875 358.296875 51.421875 357.296875 C52.50618594 355.54820017 52.50618594 355.54820017 53.421875 353.296875 C53.958125 352.4925 54.494375 351.688125 55.046875 350.859375 C57.3675384 344.84674711 57.79454562 337.96906221 55.5078125 331.8515625 C52.43989032 326.64599131 48.23425247 322.23433416 42.421875 320.296875 C42.23625 318.8428125 42.23625 318.8428125 42.046875 317.359375 C39.89097819 302.6224659 34.59460756 288.6293033 22.421875 279.296875 C5.96325016 267.6525165 -14.40048951 264.31162982 -34.078125 262.671875 C-34.7869281 262.60994965 -35.4957312 262.54802429 -36.22601318 262.48422241 C-54.32389588 260.91920203 -72.41794814 260.63317457 -90.578125 260.296875 C-90.578125 244.786875 -90.578125 229.276875 -90.578125 213.296875 C-85.03 213.173125 -79.481875 213.049375 -73.765625 212.921875 C-19.91975994 213.07721138 -19.91975994 213.07721138 27.171875 190.359375 C36.03950953 180.84682159 40.13235702 169.36570033 41.36328125 156.625 C42.50921785 153.02227682 42.74802471 152.73979798 45.8359375 151.0234375 C47.01929688 150.45367187 48.20265625 149.88390625 49.421875 149.296875 C54.81239403 144.42443789 56.48531462 139.05214744 56.859375 131.984375 C56.72350765 126.11010997 55.21177824 121.81211857 51.421875 117.296875 C44.61218838 111.75903646 38.07092033 110.46751449 29.421875 111.296875 C22.22616373 113.33525055 17.77129835 118.3455721 14.046875 124.609375 C12.25532837 132.3130255 13.15540513 138.24918354 16.9921875 145.1640625 C19.73797624 149.26023914 23.11070382 151.18230478 27.421875 153.296875 C26.87820178 166.07319556 22.8019811 174.52749367 13.421875 183.296875 C2.20709517 192.66203561 -13.56936068 194.63704391 -27.578125 196.296875 C-28.4247168 196.40128906 -29.27130859 196.50570312 -30.14355469 196.61328125 C-50.23618073 198.98506677 -70.37924803 198.43714498 -90.578125 198.296875 C-90.578125 183.446875 -90.578125 168.596875 -90.578125 153.296875 C-86.948125 153.214375 -83.318125 153.131875 -79.578125 153.046875 C-64.43570772 152.51376349 -46.88448226 150.60323226 -35.578125 139.296875 C-28.71944204 131.33504723 -23.45311387 120.50330137 -23.390625 109.796875 C-22.22620968 104.7809321 -19.22600527 103.73076625 -15.03515625 101.05078125 C-11.25392438 98.35161891 -9.61340947 95.8072402 -8.578125 91.296875 C-7.67287473 83.78241891 -7.43193767 77.06670788 -12.15234375 70.84375 C-16.25022903 66.39782515 -20.3407322 63.68089677 -26.41015625 62.9609375 C-32.95503671 62.87515925 -38.32802787 63.08744301 -43.578125 67.296875 C-49.55997986 73.6845012 -50.96661578 78.83996742 -50.8515625 87.48046875 C-50.25085838 93.66772116 -47.54840775 97.6859213 -42.953125 101.734375 C-41.17777557 103.15698033 -39.61440018 104.27873741 -37.578125 105.296875 C-37.95679037 114.19551126 -39.5693972 122.38716194 -45.703125 129.171875 C-55.03162053 137.62520251 -68.6382886 138.64530964 -80.640625 138.484375 C-82.0627832 138.4834082 -82.0627832 138.4834082 -83.51367188 138.48242188 C-90.43724635 138.43775365 -90.43724635 138.43775365 -91.578125 137.296875 C-91.66404175 134.67917645 -91.69076912 132.08269011 -91.68359375 129.46484375 C-91.69705196 127.84568982 -91.71207551 126.22654828 -91.72851562 124.60742188 C-91.7513479 122.0460335 -91.76563309 119.48603733 -91.75317383 116.92456055 C-91.74435971 114.45779803 -91.77325141 111.99381837 -91.80859375 109.52734375 C-91.79636276 108.76366989 -91.78413177 107.99999603 -91.77153015 107.21318054 C-91.76370833 104.75863971 -91.76370833 104.75863971 -92.578125 101.296875 C-95.50321849 99.02639784 -95.50321849 99.02639784 -98.578125 97.296875 C-99.35449219 95.16210938 -99.35449219 95.16210938 -99.375 92.890625 C-99.38273438 92.06433594 -99.39046875 91.23804687 -99.3984375 90.38671875 C-99.37523437 89.53207031 -99.35203125 88.67742187 -99.328125 87.796875 C-99.35132813 86.94222656 -99.37453125 86.08757812 -99.3984375 85.20703125 C-99.39070312 84.38074219 -99.38296875 83.55445312 -99.375 82.703125 C-99.36823242 81.95353516 -99.36146484 81.20394531 -99.35449219 80.43164062 C-98.578125 78.296875 -98.578125 78.296875 -95.56542969 76.71411133 C-92.42883509 74.67933158 -92.42883509 74.67933158 -92.04730225 72.06369019 C-91.88597917 69.09918593 -91.90554816 66.18277966 -91.984375 63.21484375 C-91.98489868 62.12730301 -91.98542236 61.03976227 -91.98596191 59.91926575 C-91.98912963 55.26794811 -92.06190916 50.61830276 -92.12841797 45.9675293 C-92.16705621 42.57046433 -92.17024343 39.17459603 -92.171875 35.77734375 C-92.19979126 34.732332 -92.22770752 33.68732025 -92.25646973 32.61064148 C-92.25542312 27.47882724 -92.05526717 24.20551896 -88.64428711 20.21606445 C-87.63546734 19.22928736 -86.615054 18.25407122 -85.578125 17.296875 C-84.58105472 15.97687652 -83.59745598 14.6463266 -82.640625 13.296875 C-63.7077355 -11.96320123 -26.27896577 -17.36004405 0 0 Z " fill="#65EFFD" transform="translate(354.578125,24.703125)"/>
<path d="M0 0 C5.1616695 3.02172735 9.44521008 7.84931129 11.625 13.4375 C12.35887399 20.36663577 12.71242223 27.60961748 9.0390625 33.75390625 C5.91961521 37.46794432 1.94732717 40.27633641 -2.375 42.4375 C-2.88468228 44.84577161 -2.88468228 44.84577161 -3.1875 47.75 C-4.55426785 56.77927734 -7.8558133 65.13793049 -13.375 72.4375 C-14.26445313 73.64212891 -14.26445313 73.64212891 -15.171875 74.87109375 C-23.17438276 84.19316396 -35.62931627 87.74667414 -47.375 89.4375 C-51.58926877 89.65855985 -55.7815898 89.62860461 -60 89.5625 C-63.75375 89.52125 -67.5075 89.48 -71.375 89.4375 C-71.375 104.2875 -71.375 119.1375 -71.375 134.4375 C-43.08530851 133.96747068 -43.08530851 133.96747068 -14.875 132.0625 C-13.62783203 131.94865967 -12.38066406 131.83481934 -11.09570312 131.7175293 C7.20256685 129.8711974 25.92049202 127.06390801 38.625 112.4375 C40.38070105 109.87034048 41.57336391 107.35746828 42.625 104.4375 C42.90859375 103.68210937 43.1921875 102.92671875 43.484375 102.1484375 C44.97343532 97.94816359 46.05632595 93.87315758 46.625 89.4375 C45.75875 89.251875 44.8925 89.06625 44 88.875 C38.3867365 86.48416554 35.69756927 82.33237237 32.75 77.125 C30.88600652 71.01524358 30.52854979 65.2045258 33.125 59.25 C36.56967196 53.2065008 42.00425284 48.56416424 48.625 46.4375 C55.79600615 45.51566662 61.65731444 46.26829502 67.625 50.4375 C72.34782667 54.40896788 76.13912837 58.8258542 76.9765625 65.05078125 C77.19687442 72.29103217 76.55748467 78.26473726 71.52734375 83.70703125 C65.35529772 89.4375 65.35529772 89.4375 61.625 89.4375 C61.61082031 90.15292969 61.59664063 90.86835938 61.58203125 91.60546875 C60.87611389 106.35341797 54.74449967 119.289395 44.06640625 129.4609375 C13.45691092 154.24238492 -34.57878807 149.71107778 -71.375 149.4375 C-71.375 164.9475 -71.375 180.4575 -71.375 196.4375 C-65.80625 196.375625 -60.2375 196.31375 -54.5 196.25 C20.78994281 195.99552084 20.78994281 195.99552084 44.625 217.4375 C45.22570312 217.911875 45.82640625 218.38625 46.4453125 218.875 C54.90516597 226.15882003 60.74929699 239.42866222 61.625 250.4375 C61.75 254.0625 61.75 254.0625 61.625 256.4375 C62.305625 256.458125 62.98625 256.47875 63.6875 256.5 C69.06814542 258.21722726 72.28988676 262.6286369 75.5625 267.0625 C77.5671574 273.43023528 77.89151193 280.00446401 75.55859375 286.328125 C71.80315096 293.16364484 66.97081057 296.98889648 59.625 299.4375 C52.48007713 300.14160387 46.50055619 299.81839716 40.625 295.4375 C35.19979115 290.45617188 31.62456355 284.60530682 31.125 277.125 C31.35793916 270.93093594 34.03994752 265.3266763 38.15234375 260.73046875 C40.83620638 258.3607478 43.16754162 257.15873325 46.625 256.4375 C43.85816971 243.17299007 40.45036843 232.38732751 28.625 224.4375 C16.28329976 218.08540813 3.15534716 215.80601882 -10.5 214.3125 C-11.63822205 214.18409729 -11.63822205 214.18409729 -12.79943848 214.05310059 C-32.30335242 211.88959533 -51.75614603 211.70625142 -71.375 211.4375 C-71.375 226.9475 -71.375 242.4575 -71.375 258.4375 C-65.8371875 258.375625 -65.8371875 258.375625 -60.1875 258.3125 C-43.70591388 258.29152404 -28.64868309 259.36271908 -15.875 271.1875 C-7.2098641 280.79893554 -2.75368116 292.59691072 -3.375 305.4375 C-2.529375 305.6025 -1.68375 305.7675 -0.8125 305.9375 C4.48611325 308.24962215 7.72915788 312.4547084 10.796875 317.28125 C13.06097318 323.17644903 12.69554706 330.60239606 10.4921875 336.4375 C6.99420578 342.59101758 3.40081447 346.17889518 -3.375 348.4375 C-18.06627517 349.56333893 -18.06627517 349.56333893 -24.375 344.4375 C-29.94248915 338.96085566 -32.64419557 334.15025296 -32.875 326.1875 C-32.76113348 319.47696637 -31.05801171 315.24241223 -26.375 310.4375 C-25.10911557 309.54556946 -23.81781978 308.68823705 -22.5 307.875 C-19.00311364 305.70234405 -19.00311364 305.70234405 -18.6875 301.75 C-19.38780348 294.47233638 -22.49548403 287.32976529 -27.47265625 281.97265625 C-40.05841203 271.81618393 -57.30953245 274.01694106 -72.375 273.4375 C-72.375 304.7875 -72.375 336.1375 -72.375 368.4375 C-71.055 369.0975 -69.735 369.7575 -68.375 370.4375 C-66.76953125 372.6875 -66.76953125 372.6875 -65.1875 375.4375 C-54.6663821 392.53991293 -39.74387088 401.89998252 -20.4609375 406.7109375 C-0.36807361 410.72560306 19.10445923 405.58090302 36.125 394.86328125 C38.06616136 393.47944552 39.84177064 392.01808966 41.625 390.4375 C42.2746875 389.91414063 42.924375 389.39078125 43.59375 388.8515625 C51.4143069 381.96345662 57.65631897 370.31176626 59.48046875 359.98828125 C59.60821285 357.73377057 59.6053327 355.548596 59.55078125 353.29296875 C59.5353125 352.53749756 59.51984375 351.78202637 59.50390625 351.00366211 C59.46048201 349.48908203 59.38995139 347.97497468 59.2890625 346.46313477 C59.13844893 342.5431476 59.44217508 340.68959192 61.76953125 337.48046875 C64.950938 335.20430496 66.6414982 334.77981502 70.5 334.5 C77.3795649 333.71130981 82.78242239 331.52277529 89.01953125 328.6796875 C93.30480413 327.20328796 96.12487955 327.09607885 100.625 327.4375 C103.125 329.0625 103.125 329.0625 104.625 331.4375 C105.1875 334.375 105.1875 334.375 104.625 337.4375 C98.84354669 345.90319949 86.02475376 348.16157537 76.625 350.4375 C76.49544922 352.05205078 76.49544922 352.05205078 76.36328125 353.69921875 C74.60076742 372.97158699 67.21694209 390.96536224 52.09716797 403.72705078 C30.25604518 421.23000261 5.6477018 426.12901751 -21.98974609 423.15625 C-42.08118586 420.19779495 -60.10844463 408.41586897 -73.375 393.4375 C-75.19367476 390.83237129 -76.76965955 388.18211432 -78.375 385.4375 C-79.035 385.4375 -79.695 385.4375 -80.375 385.4375 C-81.41324648 386.83292748 -82.37900643 388.28242943 -83.3125 389.75 C-93.26203122 404.25374963 -106.84666942 413.71772058 -123.375 419.4375 C-124.48359375 419.83066406 -125.5921875 420.22382813 -126.734375 420.62890625 C-149.936158 427.65307473 -175.18445192 424.48832156 -196.546875 413.58984375 C-201.68237347 410.81127144 -206.03811684 407.32368746 -210.375 403.4375 C-211.8909375 402.32375 -211.8909375 402.32375 -213.4375 401.1875 C-226.74482604 389.87815775 -233.45805364 372.14259527 -235.0625 355.1875 C-235.17650484 353.60484462 -235.2845647 352.02167695 -235.375 350.4375 C-236.29539063 350.22996094 -237.21578125 350.02242188 -238.1640625 349.80859375 C-256.96822362 345.23202093 -275.00337249 335.58087311 -286.375 319.4375 C-288.14388768 316.42101936 -288.37955948 315.29843595 -288.5 311.625 C-287.375 308.4375 -287.375 308.4375 -285.125 306.5 C-282.12137363 305.33950799 -280.53970541 304.80455892 -277.375 305.4375 C-275.00788703 307.44044175 -273.05565191 309.53814683 -271.18359375 312.01171875 C-261.90044372 323.89969296 -246.02599437 331.95428061 -231.375 334.4375 C-231.23964844 333.90382813 -231.10429687 333.37015625 -230.96484375 332.8203125 C-228.42167586 324.01821047 -223.31200616 315.33480167 -215.375 310.4375 C-212.13537732 310.4375 -210.29623699 310.9154657 -207.5 312.5 C-205.61807247 315.74109741 -205.55317698 318.87847614 -206.375 322.4375 C-207.546875 324.12890625 -207.546875 324.12890625 -209.0625 325.75 C-216.99182052 334.26318972 -218.09570676 342.95946568 -217.96655273 354.23168945 C-217.40871727 368.64346058 -210.9770447 380.80297555 -200.5 390.71875 C-183.79611631 404.22924416 -164.41350311 409.07882954 -143.35302734 407.26318359 C-129.37753176 405.72249708 -115.92435576 399.81192751 -105.375 390.4375 C-104.52808594 389.72787109 -104.52808594 389.72787109 -103.6640625 389.00390625 C-98.92612109 384.70545714 -95.70174857 379.56902493 -92.39477539 374.1484375 C-89.56410276 369.53205138 -89.56410276 369.53205138 -87.375 368.4375 C-87.37353479 367.38862981 -87.37353479 367.38862981 -87.37203997 366.31857032 C-87.31381328 324.9084623 -87.24005099 283.49840746 -87.14601372 242.08836452 C-87.13474507 237.12018923 -87.1236067 232.15201366 -87.11254883 227.18383789 C-87.11034514 226.19473133 -87.10814146 225.20562477 -87.105871 224.18654529 C-87.07046401 208.15482784 -87.0456191 192.12311044 -87.02465298 176.09136834 C-87.00291798 159.65077205 -86.96988957 143.21022666 -86.92629844 126.76967365 C-86.89974197 116.61865845 -86.88207607 106.46770671 -86.87565396 96.31665847 C-86.87041226 89.36299914 -86.85423652 82.40941977 -86.82933434 75.45580324 C-86.81527737 71.43928904 -86.80616408 67.42291814 -86.80999184 63.40637779 C-86.81338655 59.73300814 -86.80312781 56.05994525 -86.78176448 52.3866385 C-86.77395057 50.42045492 -86.78096591 48.45422991 -86.78841704 46.48804492 C-86.7789605 45.32906784 -86.76950396 44.17009076 -86.75976086 42.97599316 C-86.75786225 41.97163288 -86.75596365 40.96727261 -86.75400752 39.93247718 C-86.31573895 37.04738912 -85.69537037 36.15011702 -83.375 34.4375 C-81.4375 34.0390625 -81.4375 34.0390625 -79.375 34.0625 C-78.3540625 34.05089844 -78.3540625 34.05089844 -77.3125 34.0390625 C-74.6386854 34.58891954 -73.97040292 35.19223058 -72.375 37.4375 C-72.04390477 40.22890762 -71.88642322 42.80966688 -71.86328125 45.60546875 C-71.84533005 46.40028152 -71.82737885 47.1950943 -71.80888367 48.01399231 C-71.7547303 50.55094101 -71.72086972 53.08770107 -71.6875 55.625 C-71.65433126 57.34572941 -71.61984201 59.0664339 -71.58398438 60.78710938 C-71.49900127 65.00377022 -71.43221458 69.22037464 -71.375 73.4375 C-48.70716199 74.3608846 -48.70716199 74.3608846 -28.375 65.4375 C-21.7197999 59.09921419 -19.69652749 50.31816475 -18.375 41.4375 C-19.055625 41.2725 -19.73625 41.1075 -20.4375 40.9375 C-25.41404589 38.39628508 -29.11172804 34.01806541 -31.5625 29.01171875 C-33.38269474 23.24485176 -32.96703061 17.33822985 -31.1875 11.625 C-24.54907464 -0.04947219 -13.10951148 -5.80133554 0 0 Z " fill="#010203" transform="translate(335.375,88.5625)"/>
<path d="M0 0 C11.25278303 9.33875825 11.25278303 9.33875825 14.8203125 15.3984375 C15.27148438 16.13320313 15.72265625 16.86796875 16.1875 17.625 C16.8475 17.625 17.5075 17.625 18.1875 17.625 C19.46212592 16.13657685 19.46212592 16.13657685 20.75 14.1875 C31.93920763 -1.06317483 47.87707077 -10.46109499 66.42358398 -13.97802734 C88.70892892 -17.17880209 109.47302204 -12.92763619 128.13671875 -0.39453125 C130.61556068 1.50730613 132.9141253 3.48293936 135.1875 5.625 C135.88101562 6.27726562 136.57453125 6.92953125 137.2890625 7.6015625 C145.06377526 15.61642082 152.8273036 28.16038454 153.3125 39.5625 C153.27125 40.243125 153.23 40.92375 153.1875 41.625 C153.95191406 41.57859375 154.71632813 41.5321875 155.50390625 41.484375 C171.21378925 40.9550408 186.57322959 45.56407589 198.5 56 C200.0821992 57.52144275 201.64614125 59.06219625 203.1875 60.625 C203.83589844 61.26308594 204.48429687 61.90117188 205.15234375 62.55859375 C214.25362445 72.13784105 218.57997804 84.08825893 218.4375 97.125 C218.44523437 97.83269531 218.45296875 98.54039063 218.4609375 99.26953125 C218.44237843 104.34543696 217.5730165 108.74270376 216.1875 113.625 C217.92386719 114.25341797 217.92386719 114.25341797 219.6953125 114.89453125 C236.66338022 121.27341989 251.48446391 129.98548875 259.7578125 146.8203125 C265.53744835 160.26209416 266.28460739 174.95433935 261.4140625 188.84765625 C259.953624 192.15457272 258.22783388 195.06456037 256.04296875 197.94140625 C255.01935205 199.59955191 255.01935205 199.59955191 255.3203125 201.5625 C256.42847722 204.19813501 257.97999233 205.92204372 259.875 208.0625 C269.44037243 219.71922625 273.7858376 234.00619862 273.625 248.9375 C273.61670166 249.94151855 273.60840332 250.94553711 273.59985352 251.97998047 C273.19272895 269.97169889 265.99292927 285.00912479 253.1875 297.625 C252.011875 298.79869141 252.011875 298.79869141 250.8125 299.99609375 C243.60593433 306.84464093 235.51001204 312.10995448 226.1875 315.625 C226.89326172 317.05779297 226.89326172 317.05779297 227.61328125 318.51953125 C236.31146756 336.44701969 240.17078547 354.46103403 234.11328125 374.109375 C228.28140416 390.07804792 228.28140416 390.07804792 223.1875 392.625 C219.8125 393 219.8125 393 216.1875 392.625 C213.30965763 390.11611178 212.2861672 388.62556879 211.91015625 384.8125 C212.23023302 381.13387122 213.27897409 378.96717353 215.0625 375.75 C221.12523034 364.05350609 222.17687874 351.47562516 218.5625 338.75 C215.92331847 331.2413427 212.31446147 324.76148796 206.8125 319 C204.57515658 316.50291223 203.71709219 314.80553027 203.5 311.4375 C204.1875 307.625 204.1875 307.625 205.9375 305.375 C209.82008773 303.28437584 213.74962175 302.06958228 217.94140625 300.73046875 C233.2845561 295.5053046 244.84171883 285.76659464 252.359375 271.3828125 C257.83540272 259.91489937 259.37884586 246.71402595 255.625 234.4375 C252.42168943 226.04300883 248.56419073 217.98986598 241.1875 212.625 C240.52363281 212.96273437 239.85976563 213.30046875 239.17578125 213.6484375 C237.85126953 214.31746094 237.85126953 214.31746094 236.5 215 C235.62988281 215.44085938 234.75976562 215.88171875 233.86328125 216.3359375 C227.51138457 219.39597532 222.27432036 220.68094712 215.1875 219.625 C212.4375 217.5 212.4375 217.5 211.1875 214.625 C211.10965409 210.81055063 211.65141312 209.22809774 214.1875 206.375 C216.91877317 204.78175732 218.37123233 204.2922731 221.375 203.75 C229.27184211 202.23643859 236.01361173 197.79137397 240.9453125 191.48046875 C246.9727591 182.47720732 249.34184735 173.44393632 248.1875 162.625 C245.42159613 151.7627853 238.75487086 143.28207129 229.375 137.25 C222.05995284 133.25276835 214.5918991 130.62955035 206.25 130.125 C202.74732828 129.89755378 201.23036364 129.64814637 198.0625 127.9375 C195.71149056 125.03792169 195.42068097 123.33795852 195.1875 119.625 C196.3671875 116.58984375 196.3671875 116.58984375 198.0625 113.5625 C202.44147764 105.64978924 203.61694294 97.64499684 201.50390625 88.74609375 C197.65473248 77.26245915 190.07802986 68.55727417 179.375 62.875 C170.59260181 58.79266201 161.80973132 57.16473831 152.1875 56.625 C152.20103516 57.46417969 152.20103516 57.46417969 152.21484375 58.3203125 C151.90834875 66.60900337 148.64041436 76.11138735 142.70092773 82.13183594 C140.39478475 84.11995123 138.61107126 85.52168994 135.625 86.25 C131.90775949 85.29686141 130.41674744 83.70660675 128.1875 80.625 C128.02045911 76.1984164 129.16229908 73.45334833 131.5625 69.875 C137.64897874 60.68353501 138.47458689 49.62581042 136.75390625 38.9296875 C134.53555499 30.13895394 128.93232735 22.56687171 122.1875 16.625 C121.25357422 15.79548828 121.25357422 15.79548828 120.30078125 14.94921875 C106.76683867 3.60208916 89.41141792 0.23741164 72.1875 1.625 C57.09510847 3.63129396 43.2633973 11.60171899 33.90234375 23.5390625 C32.53440148 25.42091412 31.1901924 27.32042784 29.87890625 29.2421875 C28.1875 31.625 28.1875 31.625 26.60385132 32.96974182 C24.68848621 35.20818628 24.82111347 36.57184588 24.83447266 39.49194336 C24.82898911 40.97379372 24.82898911 40.97379372 24.82339478 42.48558044 C24.8373378 44.08406578 24.8373378 44.08406578 24.8515625 45.71484375 C24.83905157 47.96549768 24.82601452 50.21614874 24.8125 52.46679688 C24.80856498 56.01987807 24.81254184 59.57267792 24.82714844 63.12573242 C24.83570088 66.5517001 24.81406501 69.97648055 24.7890625 73.40234375 C24.80240631 74.46597641 24.81575012 75.52960907 24.82949829 76.62547302 C24.75551487 83.98704779 24.75551487 83.98704779 21.81005859 87.29516602 C18.86524187 88.78840905 17.42659539 89.28942982 14.1875 88.625 C12.06005859 87.28637695 12.06005859 87.28637695 10.1875 84.625 C9.61995801 80.93307068 9.72666817 77.27053888 9.7890625 73.54296875 C9.78432572 71.30924374 9.77910215 69.07551972 9.7734375 66.84179688 C9.78816648 63.32623585 9.81251428 59.81107113 9.84765625 56.2956543 C9.8743703 52.89843859 9.8647092 49.5027303 9.8515625 46.10546875 C9.87320465 45.060457 9.8948468 44.01544525 9.91714478 42.93876648 C9.8825657 37.80863901 9.65441758 34.52720543 6.24487305 30.54199219 C5.23814849 29.55682867 4.22064729 28.58241744 3.1875 27.625 C2.23223728 26.32537096 1.29037735 25.01552365 0.375 23.6875 C-6.08773978 15.05381404 -13.93680647 9.77672191 -23.8125 5.625 C-25.27429688 5.00238281 -25.27429688 5.00238281 -26.765625 4.3671875 C-43.31991778 -1.70271985 -60.29035661 0.9768461 -75.96484375 8.046875 C-84.95603461 12.6349724 -91.16239199 18.18937529 -96.6875 26.5625 C-97.26008545 27.42198242 -97.26008545 27.42198242 -97.84423828 28.29882812 C-101.48217657 34.0920362 -102.89681813 39.95911586 -103.1875 46.8125 C-103.49133084 50.10400079 -103.85001559 51.69570246 -105.4375 54.6875 C-109.68470622 58.15232613 -114.26335567 57.77340317 -119.5 57.4375 C-122.44101018 57.03167066 -123.77093107 56.6520198 -126.3125 55 C-128.34987016 51.77416391 -128.8125 49.43351038 -128.8125 45.625 C-127.25 43.1875 -127.25 43.1875 -124.8125 41.625 C-121.5625 41.375 -121.5625 41.375 -118.8125 41.625 C-118.750625 40.3875 -118.68875 39.15 -118.625 37.875 C-116.8992278 22.99604512 -107.01516654 10.01650344 -95.609375 0.85546875 C-67.79972363 -19.73264412 -27.98843237 -20.87026704 0 0 Z " fill="#010101" transform="translate(238.8125,14.375)"/>
<path d="M0 0 C8.8226004 6.70819688 15.35869995 17.94536145 17 29 C18.18072261 44.23132167 15.40725103 57.48635555 5.92578125 69.6640625 C-4.44217206 81.642396 -16.47404849 88.61428222 -31.6015625 93.140625 C-34.14352247 93.85875311 -34.14352247 93.85875311 -36 96 C-36.83785039 101.22033466 -36.83785039 101.22033466 -34.6796875 105.8125 C-33.46213767 107.07918861 -32.24043876 108.34189632 -31.015625 109.6015625 C-21.77423619 120.5980988 -19.01892573 133.9946533 -19.79589844 147.97363281 C-20.47256028 154.69168701 -22.73637908 161.19022006 -26.25 166.9375 C-28.21811323 170.38169815 -28.50831154 172.10294485 -28 176 C-27.35954594 177.67691407 -26.69633458 179.34550903 -26 181 C-27.55604388 182.61042988 -29.12012756 184.21309368 -30.6875 185.8125 C-31.55761719 186.70582031 -32.42773438 187.59914063 -33.32421875 188.51953125 C-35.77362182 190.79014577 -38.07585703 192.41411345 -41 194 C-41.33 193.505 -41.66 193.01 -42 192.5 C-45.07204394 190.19596705 -48.33203636 190.60655923 -52 191 C-55.64746344 192.19228502 -55.64746344 192.19228502 -59.1875 193.875 C-65.20592072 196.51285776 -70.69201744 197.83480899 -77.29296875 198.3828125 C-80.79269404 199.18072967 -81.99590963 200.01295102 -84 203 C-84.2162565 205.79652245 -84.23148249 208.2290538 -84.0625 211 C-83.65920328 225.78231544 -87.93492984 238.69474011 -98.06689453 249.77539062 C-112.43184614 264.53897785 -131.47386367 271.04056053 -151.8125 271.375 C-170.38316957 271.30517816 -188.33451087 263.98616468 -201.44140625 250.80859375 C-205.08939648 246.80415867 -208.13604671 242.58874308 -211 238 C-213.39121408 233.87558566 -213.39121408 233.87558566 -217 231 C-217 199.65 -217 168.3 -217 136 C-216.67 136 -216.34 136 -216 136 C-216 159.43 -216 182.86 -216 207 C-213.03 207.99 -210.06 208.98 -207 210 C-199.39817417 213.81780586 -195.0138539 219.18447587 -190.58203125 226.265625 C-183.53497925 237.37465067 -174.49072148 243.26128064 -162 247 C-162.103125 245.7625 -162.20625 244.525 -162.3125 243.25 C-162.30640554 239.81882161 -162.18089494 239.21813802 -159.875 236.4375 C-156.31607124 234.65803562 -154.74980806 234.7772365 -151 236 C-149.125 237.125 -149.125 237.125 -148 239 C-147.56923077 245.13846154 -147.56923077 245.13846154 -149 248 C-135.80695671 247.01753933 -124.85159747 243.12337618 -115 234 C-113.11095328 231.45867045 -113.11095328 231.45867045 -111.6875 228.8125 C-111.19636719 227.95269531 -110.70523438 227.09289062 -110.19921875 226.20703125 C-108.32460303 222.75700557 -107.87984431 220.85000439 -107.859375 216.90625 C-107.83037109 215.359375 -107.83037109 215.359375 -107.80078125 213.78125 C-107.76741352 211.62518113 -107.74873631 209.46882544 -107.74609375 207.3125 C-107.52718985 198.00332349 -104.98825801 191.04921557 -98.6875 184.125 C-92.38934364 178.38097328 -86.39624984 176.76001884 -78.08203125 175.546875 C-66.30731987 173.4575726 -55.00283935 167.86446473 -48 158 C-43.70141202 151.70563903 -42.08578423 145.53931183 -43 138 C-44.46540429 131.36142354 -47.06369775 126.63061644 -51.5 121.5 C-57.65874718 114.36721703 -60.78300217 106.9187862 -60.31640625 97.40625 C-59.14163302 88.47217208 -55.082828 81.9724813 -48.6875 75.75 C-43.14701176 72.14224022 -37.23407257 70.04895273 -30.9375 68.125 C-26.05916989 66.56318768 -22.51432343 64.57668335 -18.62109375 61.26953125 C-17 60 -17 60 -14 59 C-12.97348627 57.28480253 -12.97348627 57.28480253 -12 55 C-10.98299153 53.25074542 -9.94626912 51.51456005 -8.90234375 49.78125 C-5.75030068 43.5590351 -6.3185264 35.47551535 -7.625 28.8125 C-11.23938338 21.41944309 -16.00293863 15.57974009 -22 10 C-22.99 9.01 -22.99 9.01 -24 8 C-22.7625 7.938125 -21.525 7.87625 -20.25 7.8125 C-13.00424755 7.03041878 -6.03559566 4.02373044 0 0 Z " fill="#64D1FC" transform="translate(480,226)"/>
<path d="M0 0 C2.4375 1 2.4375 1 4 3 C4.45906022 6.16241488 4.67261859 7.9880973 4 11 C2 13.5 2 13.5 -1 16 C-8.4359818 22.4893065 -15.27893429 31.34015439 -16.23828125 41.53125 C-16.41547999 48.6191998 -16.55597393 56.19512971 -12 62 C-8.57421167 63.54072181 -5.30017577 64.32841673 -1.62890625 65.109375 C4.52113918 66.61875106 10.91605363 70.01275085 15 75 C15.3898913 78.57400356 15.37020241 81.09763163 14 84.4375 C11.44490524 86.43366778 9.31284017 86.61107588 6.11328125 86.46484375 C3.09899011 85.80181113 1.2142074 84.31495826 -1.06640625 82.2890625 C-8.96532266 77.02311823 -21.40030518 77.93247827 -30.421875 79.65234375 C-42.31078412 83.24057668 -52.38843109 90.99988168 -58.60546875 101.78515625 C-63.19007691 111.53226435 -63.50722603 120.52370213 -60 130.6875 C-57.69411329 136.18973111 -54.6489246 140.35280657 -50.57421875 144.68359375 C-48.52201116 147.70334338 -48.48454043 149.41542793 -49 153 C-50.3203125 155.08984375 -50.3203125 155.08984375 -52.125 156.9375 C-53.08792969 157.96810547 -53.08792969 157.96810547 -54.0703125 159.01953125 C-55.22821364 160.20790347 -56.38879817 161.39368257 -57.5546875 162.57421875 C-66.87567571 172.57538718 -71.48929223 185.81823096 -71.24609375 199.30859375 C-70.15738768 215.63918486 -63.09353851 227.88522886 -51.06640625 238.74609375 C-42.96489163 245.23067406 -33.38148676 249.16793413 -23.49609375 252.04296875 C-20.89965647 253.03847287 -19.64679253 253.77924395 -18 256 C-17.45296445 259.22750972 -17.22332472 260.92123683 -18 264 C-19.50414048 266.05432756 -21.20982031 267.77651235 -22.984375 269.6015625 C-30.59351456 278.65584872 -33.91835512 290.1181754 -34.65625 301.703125 C-35.02914039 304.19471076 -35.67323201 305.86502475 -37 308 C-39.91143295 309.69833589 -41.74708103 310.00505838 -45.125 309.9375 C-48 309 -48 309 -49.68359375 306.84375 C-53.85236426 297.83821607 -49.22859859 284.81075503 -46 276 C-44.15677233 271.90794445 -42.16092033 267.932875 -40 264 C-40.89460938 263.5875 -41.78921875 263.175 -42.7109375 262.75 C-50.64486131 258.99999853 -57.45082884 254.93316001 -64 249 C-64.84304687 248.26136719 -65.68609375 247.52273438 -66.5546875 246.76171875 C-77.47125661 236.62490458 -86.08912003 221.64301399 -87.17700195 206.54321289 C-87.64073596 187.09040259 -85.93911234 169.48951552 -72 154.4375 C-71.1028125 153.56931641 -71.1028125 153.56931641 -70.1875 152.68359375 C-68.79752797 151.08923273 -68.79752797 151.08923273 -69.12890625 149.14453125 C-70.65841544 145.37905795 -72.61832441 141.84914042 -74.52734375 138.265625 C-80.00096438 126.12783495 -79.7087181 111.29931892 -75.26171875 98.89453125 C-68.38053565 83.10828766 -56.80842982 72.63954052 -41 66 C-37.69640793 64.87315832 -34.376381 63.88360609 -31 63 C-30.86077777 59.2685128 -30.86077777 59.2685128 -31.48046875 56.75 C-34.18184382 42.45099213 -31.45665016 28.39879414 -23.55859375 16.20703125 C-18.1528282 8.55225046 -10.41362812 -2.04188787 0 0 Z " fill="#020001" transform="translate(87,66)"/>
<path d="M0 0 C12.45210817 -1.18717133 25.03768207 2.48875214 34.89453125 10.19921875 C35.58933594 10.79347656 36.28414063 11.38773438 37 12 C37.96486328 12.78310547 37.96486328 12.78310547 38.94921875 13.58203125 C45.57008931 19.48480305 50.47454215 28.58335128 51.203125 37.48046875 C51.34675164 45.774907 49.70254844 51.9411612 45.75 59.1875 C44.30099845 61.98518761 44 63.02723681 44 66.3125 C45.20545538 69.55216133 46.03836032 70.27075315 49 72 C52.32082913 72.61345448 52.32082913 72.61345448 56 72.875 C70.0643966 74.40325457 81.05792872 80.71576208 90.16796875 91.4609375 C96.27387742 99.92328427 98.34791543 108.68717536 97 119 C94.63605385 129.49870201 88.76061032 137.66857512 79.96875 143.7890625 C75.77026866 146.37146174 71.51140677 147.9242805 66.75 149.0625 C62.95305304 149.78838835 62.95305304 149.78838835 60 152 C59.39386349 140.19156278 61.40503257 132.1020628 69 123 C72.40424098 118.78949141 73.84220111 115.68292525 73.5703125 110.30859375 C72.27555894 105.0675023 68.46605342 101.72099047 64.1640625 98.71875 C59.03173991 96.04101648 53.65144025 95.43497841 48 94.625 C38.99015974 93.3168829 33.72399166 90.64123629 27.1875 84.25 C21.80798614 76.25757941 19.73764491 68.62855156 21 59 C22.37113935 53.91268858 24.0737504 49.3893744 27 45 C27.84066981 40.43383556 27.60183604 36.24094429 25.125 32.25 C20.1739706 26.41728043 14.43718976 24.09930313 6.90234375 23.47265625 C1.93752536 23.17181164 -3.02660044 23.03692043 -8 23 C-7.59007812 22.17757812 -7.18015625 21.35515625 -6.7578125 20.5078125 C-3.48110284 13.71922264 -0.98105179 7.49320593 0 0 Z " fill="#65D2FD" transform="translate(391,71)"/>
<path d="M0 0 C10.51376427 8.00717146 20.16313698 17.86229408 22.421875 31.296875 C23.47289136 43.97799041 20.76544955 54.89347772 13.421875 65.296875 C5.45353269 57.79725871 0.73296603 51.13092368 0.109375 39.921875 C-0.46285894 33.07382944 -2.67400813 28.18953579 -7.55859375 23.32421875 C-15.959365 16.32109794 -25.7938693 12.8732598 -36.69921875 13.01953125 C-45.61546318 13.87849103 -55.04906004 17.00140807 -61.578125 23.296875 C-63.83824193 26.14542474 -65.9113362 29.11758152 -67.8659668 32.18310547 C-71.85186207 38.29184098 -76.75561959 42.21188523 -83.890625 44.109375 C-85.15326172 44.45935547 -85.15326172 44.45935547 -86.44140625 44.81640625 C-88.578125 45.296875 -88.578125 45.296875 -90.578125 45.296875 C-90.578125 54.206875 -90.578125 63.116875 -90.578125 72.296875 C-90.908125 72.296875 -91.238125 72.296875 -91.578125 72.296875 C-91.73068141 65.58940893 -91.83550983 58.88239268 -91.90771484 52.17358398 C-91.93782505 49.89314047 -91.978723 47.61281218 -92.03076172 45.33276367 C-92.10382771 42.04837579 -92.13764002 38.76552313 -92.1640625 35.48046875 C-92.19503021 34.46665634 -92.22599792 33.45284393 -92.25790405 32.40830994 C-92.26029497 27.34108879 -92.00887772 24.16901546 -88.64477539 20.23461914 C-87.63529457 19.24224703 -86.6146518 18.26096323 -85.578125 17.296875 C-84.58105472 15.97687652 -83.59745598 14.6463266 -82.640625 13.296875 C-63.7077355 -11.96320123 -26.27896577 -17.36004405 0 0 Z " fill="#64D1FB" transform="translate(354.578125,24.703125)"/>
<path d="M0 0 C2.5 1.625 2.5 1.625 4 4 C4.5625 6.9375 4.5625 6.9375 4 10 C0.65355557 14.79657035 -3.02720805 15.76694063 -8.390625 17.2109375 C-19.7104938 20.6340116 -29.16016061 29.22018844 -34.76171875 39.4765625 C-38.41221285 46.91573974 -40.627036 54.06262861 -42.19140625 62.21484375 C-43.03086054 65.10629741 -43.54399565 66.30102287 -46 68 C-48.72775908 68.61044608 -51.25480476 68.49184748 -54 68 C-56 66.5625 -56 66.5625 -57 64 C-59.09575871 49.838659 -51.52755253 35.28105453 -43.8984375 23.8515625 C-36.01231382 13.61394013 -25.98273573 6.6523509 -14 2 C-12.4221875 1.3503125 -12.4221875 1.3503125 -10.8125 0.6875 C-6.9383761 -0.25950806 -3.99972159 -0.38706983 0 0 Z " fill="#040203" transform="translate(142,196)"/>
<path d="M0 0 C2.62890625 1.40625 2.62890625 1.40625 5 4 C5.79805844 7.30739372 5.87300309 10.60906379 6 14 C6.56669493 22.51204839 7.76230095 29.45454142 12 37 C12.4434375 37.81597656 12.886875 38.63195312 13.34375 39.47265625 C17.66226438 46.65818435 23.75557817 51.26633422 31 55.3125 C34 57 34 57 35 59 C35.35872645 62.87424565 35.56710729 65.14933906 33.375 68.4375 C30.11106508 70.5848256 28.87951466 70.71842864 25 70 C9.37811185 62.83771564 -0.51686865 49.86903079 -6.77734375 34.29296875 C-9.4928246 26.97938934 -10.21041794 20.46131074 -10.375 12.6875 C-10.40126465 11.89762695 -10.4275293 11.10775391 -10.45458984 10.29394531 C-10.46512135 6.50746427 -10.44886387 4.61278018 -8.16015625 1.48828125 C-5.18935674 -0.55850828 -3.54046712 -0.57803545 0 0 Z " fill="#040203" transform="translate(170,348)"/>
<path d="M0 0 C3.0625 0.5625 3.0625 0.5625 6 2.375 C8.63826116 6.45231271 8.51601629 8.68669631 7.82421875 13.40234375 C3.9716421 29.38559763 -5.1265717 40.95258419 -18.9375 49.5625 C-29.45669561 55.85866088 -29.45669561 55.85866088 -35.9375 54.5625 C-38.4375 52.5 -38.4375 52.5 -39.9375 49.5625 C-39.93359375 46.12109375 -39.93359375 46.12109375 -38.9375 42.5625 C-36.71088106 40.88401952 -34.97335444 39.83723214 -32.5 38.6875 C-22.69605 33.59835982 -14.01444627 27.20973159 -9.9375 16.5625 C-9.11840508 13.47334203 -8.40375952 10.40173128 -7.80859375 7.26171875 C-6.42971226 2.98904114 -4.42248112 0.84685809 0 0 Z " fill="#050204" transform="translate(199.9375,82.4375)"/>
<path d="M0 0 C0.33 0 0.66 0 1 0 C1.11438698 41.82751098 1.20251917 83.65500394 1.25532665 125.48264028 C1.26158035 130.41819599 1.26805195 135.35375139 1.2746582 140.28930664 C1.27596976 141.27190735 1.27728131 142.25450806 1.2786326 143.26688454 C1.30040279 159.18737596 1.33983319 175.10777731 1.38576398 191.02821525 C1.43248375 207.35804298 1.46028591 223.68782346 1.47044247 240.01771528 C1.47731094 250.09819371 1.499022 260.17841761 1.53958233 270.25881771 C1.56596542 277.16669171 1.57401108 284.07443367 1.56750689 290.98235442 C1.56429705 294.97089839 1.56929621 298.95899687 1.59602737 302.94746208 C1.620313 306.59761188 1.62161901 310.24701557 1.60449447 313.89719931 C1.60137279 315.84605765 1.62298028 317.79490689 1.64540654 319.74363869 C1.57209538 328.25645527 1.57209538 328.25645527 -1.42234516 332.14828968 C-2.27297126 332.75935409 -3.12359735 333.37041849 -4 334 C-5.21967489 335.79850365 -6.38814227 337.63291816 -7.5 339.5 C-10.01610953 343.56195461 -12.31724803 346.94857694 -16 350 C-16.66 350 -17.32 350 -18 350 C-22.15579267 342.82012605 -23.00868494 336.21212183 -22 328 C-21.06901353 324.70420834 -19.75212368 321.93365445 -18 319 C-17.649375 318.37480469 -17.29875 317.74960937 -16.9375 317.10546875 C-13.78370647 312.07911031 -9.31703023 308.59668918 -4 306 C-2.68 306 -1.36 306 0 306 C0 205.02 0 104.04 0 0 Z " fill="#BC54A0" transform="translate(248,128)"/>
<path d="M0 0 C1.66796875 1.1015625 1.66796875 1.1015625 3 3 C3.99871683 11.16597879 3.64326311 19.53407067 0 27 C-0.4021875 27.83144531 -0.804375 28.66289062 -1.21875 29.51953125 C-5.33462157 37.14532663 -10.91983131 41.27988754 -18 46 C-21.91054241 46.42660463 -24.12030578 46.58646281 -27.4375 44.375 C-29.49791771 41.24316508 -29.6767545 39.68455227 -29 36 C-26.89537335 33.43498627 -24.56717916 31.45793648 -21.9921875 29.37890625 C-17.45805307 25.62276906 -14.63106328 22.85263882 -13 17 C-12.82619645 14.96052397 -12.68254964 12.91834486 -12.5625 10.875 C-12.32533757 6.92723371 -12.15705201 5.25837588 -10.0625 1.8125 C-6.45029886 -1.36185858 -4.62457227 -1.13254831 0 0 Z " fill="#060204" transform="translate(202,246)"/>
<path d="M0 0 C4.96589536 3.87339838 8.34136732 7.58329123 11.640625 12.94921875 C12.87690496 15.01945222 12.87690496 15.01945222 14.56367493 16.33149719 C16.47786879 18.55511488 16.36346695 19.83969731 16.34057617 22.74682617 C16.34034958 23.70759567 16.34012299 24.66836517 16.33988953 25.6582489 C16.32440567 26.69270645 16.30892181 27.727164 16.29296875 28.79296875 C16.28872391 29.85413406 16.28447906 30.91529938 16.28010559 32.00862122 C16.26329706 35.40183765 16.22564019 38.79446272 16.1875 42.1875 C16.172456 44.48631956 16.15876711 46.78514841 16.14648438 49.08398438 C16.11338645 54.72285842 16.0631653 60.36138697 16 66 C15.67 66 15.34 66 15 66 C15 55.77 15 45.54 15 35 C13.35 34.34 11.7 33.68 10 33 C3.70114311 27.53924465 -0.64064273 20.74864962 -1.2734375 12.38671875 C-1.37193443 2.74386887 -1.37193443 2.74386887 0 0 Z " fill="#CE5BB6" transform="translate(233,31)"/>
<path d="M0 0 C1.9375 1.125 1.9375 1.125 3 3 C3.5 6.4375 3.5 6.4375 3 10 C0.9375 12.5 0.9375 12.5 -2 14 C-5.80284671 14 -8.01930006 13.7968187 -11 11.375 C-12.46981805 7.88418213 -11.98413921 5.60851044 -11 2 C-7.79952331 -1.93904824 -4.62362797 -1.17692348 0 0 Z " fill="#F4F4F4" transform="translate(394,359)"/>
<path d="M0 0 C1.9375 1.1875 1.9375 1.1875 3 3 C3.70541917 7.0561602 3.32120577 8.54252512 0.9375 11.9375 C-2 14 -2 14 -5.625 14.0625 C-9 13 -9 13 -11 11.375 C-12.46981805 7.88418213 -11.98413921 5.60851044 -11 2 C-7.79952331 -1.93904824 -4.62362797 -1.17692348 0 0 Z " fill="#F5F5F5" transform="translate(394,151)"/>
<path d="M0 0 C2.4375 1.625 2.4375 1.625 4 4 C4.5625 6.9375 4.5625 6.9375 4 10 C1.71129282 13.00801515 0.17597863 14.67660588 -3.5 15.6875 C-7.47214501 14.59516012 -8.85292326 12.41006305 -11 9 C-11 5.73344791 -10.54466247 3.90777078 -8.875 1.125 C-5.83167192 -0.70099685 -3.45750445 -0.42460581 0 0 Z " fill="#04090A" transform="translate(417,255)"/>
<path d="M0 0 C2.375 1 2.375 1 4 3 C4.56559975 7.454098 4.77198078 9.73395152 2.4375 13.5625 C0 15 0 15 -3.5625 14.9375 C-7 14 -7 14 -8.9375 12.875 C-10.6712306 9.81547541 -10.42145216 7.43182475 -10 4 C-7.24846472 -0.12730291 -4.82246105 -0.70327557 0 0 Z " fill="#F7F7F7" transform="translate(328,102)"/>
<path d="M0 0 C2.375 1 2.375 1 4 3 C4.45352711 6.17468977 4.69511624 7.98984447 4 11 C1.875 13.5625 1.875 13.5625 -1 15 C-4.18409977 14.936318 -6.14932332 14.51040601 -8.875 12.875 C-10.70099685 9.83167192 -10.42460581 7.45750445 -10 4 C-7.24846472 -0.12730291 -4.82246105 -0.70327557 0 0 Z " fill="#F7F7F7" transform="translate(328,408)"/>
<path d="M0 0 C4.36689189 1.42398649 4.36689189 1.42398649 5.875 3.9375 C6.37530235 7.86844707 6.4746142 10.0380787 4.25 13.375 C1.15814769 15.40911336 -0.48867425 15.54355429 -4.125 14.9375 C-6.5 13.375 -6.5 13.375 -8.125 10.9375 C-8.6875 7.4375 -8.6875 7.4375 -8.125 3.9375 C-5.45043116 0.79094842 -4.15592269 -0.08311845 0 0 Z " fill="#020607" transform="translate(326.125,461.0625)"/>
<path d="M0 0 C4.36689189 1.42398649 4.36689189 1.42398649 5.875 3.9375 C6.37530235 7.86844707 6.4746142 10.0380787 4.25 13.375 C1.15814769 15.40911336 -0.48867425 15.54355429 -4.125 14.9375 C-6.5 13.375 -6.5 13.375 -8.125 10.9375 C-8.6875 7.4375 -8.6875 7.4375 -8.125 3.9375 C-5.45043116 0.79094842 -4.15592269 -0.08311845 0 0 Z " fill="#030707" transform="translate(326.125,48.0625)"/>
<path d="M0 0 C2.4375 1.625 2.4375 1.625 4 4 C4.48288863 7.31123632 4.29618989 9.296549 3 12.375 C0.2897489 14.57707902 -1.70878117 14.51582761 -5.125 14.30859375 C-7 14 -7 14 -9 13 C-10.62932095 9.7413581 -10.52673518 6.56102656 -10 3 C-7.83165681 -1.08158719 -4.19361486 -0.51500533 0 0 Z " fill="#020505" transform="translate(366,255)"/>
</svg>
